<svg xmlns="http://www.w3.org/2000/svg" viewBox="0 0 200 200">
  <defs>
    <radialGradient id="g" cx="42%" cy="38%" r="58%">
      <stop offset="0%" stop-color="#ffffff"/>
      <stop offset="70%" stop-color="#e8e8f0"/>
      <stop offset="100%" stop-color="#c8c8d8"/>
    </radialGradient>
  </defs>
  <!-- Limbal ring -->
  <circle cx="100" cy="100" r="99" fill="#888898"/>
  <!-- Iris (pearl white) -->
  <circle cx="100" cy="100" r="92" fill="url(#g)"/>
  <!-- Radial vein lines (Byakugan has visible blood vessels) -->
  <line x1="100" y1="100" x2="100" y2="14" stroke="#b0b0c8" stroke-width="2" opacity="0.7"/>
  <line x1="100" y1="100" x2="100" y2="14" stroke="#b0b0c8" stroke-width="2" opacity="0.7" transform="rotate(22.5 100 100)"/>
  <line x1="100" y1="100" x2="100" y2="14" stroke="#b0b0c8" stroke-width="2" opacity="0.7" transform="rotate(45 100 100)"/>
  <line x1="100" y1="100" x2="100" y2="14" stroke="#b0b0c8" stroke-width="2" opacity="0.7" transform="rotate(67.5 100 100)"/>
  <line x1="100" y1="100" x2="100" y2="14" stroke="#b0b0c8" stroke-width="2" opacity="0.7" transform="rotate(90 100 100)"/>
  <line x1="100" y1="100" x2="100" y2="14" stroke="#b0b0c8" stroke-width="2" opacity="0.7" transform="rotate(112.5 100 100)"/>
  <line x1="100" y1="100" x2="100" y2="14" stroke="#b0b0c8" stroke-width="2" opacity="0.7" transform="rotate(135 100 100)"/>
  <line x1="100" y1="100" x2="100" y2="14" stroke="#b0b0c8" stroke-width="2" opacity="0.7" transform="rotate(157.5 100 100)"/>
  <line x1="100" y1="100" x2="100" y2="14" stroke="#b0b0c8" stroke-width="2" opacity="0.7" transform="rotate(180 100 100)"/>
  <line x1="100" y1="100" x2="100" y2="14" stroke="#b0b0c8" stroke-width="2" opacity="0.7" transform="rotate(202.5 100 100)"/>
  <line x1="100" y1="100" x2="100" y2="14" stroke="#b0b0c8" stroke-width="2" opacity="0.7" transform="rotate(225 100 100)"/>
  <line x1="100" y1="100" x2="100" y2="14" stroke="#b0b0c8" stroke-width="2" opacity="0.7" transform="rotate(247.5 100 100)"/>
  <line x1="100" y1="100" x2="100" y2="14" stroke="#b0b0c8" stroke-width="2" opacity="0.7" transform="rotate(270 100 100)"/>
  <line x1="100" y1="100" x2="100" y2="14" stroke="#b0b0c8" stroke-width="2" opacity="0.7" transform="rotate(292.5 100 100)"/>
  <line x1="100" y1="100" x2="100" y2="14" stroke="#b0b0c8" stroke-width="2" opacity="0.7" transform="rotate(315 100 100)"/>
  <line x1="100" y1="100" x2="100" y2="14" stroke="#b0b0c8" stroke-width="2" opacity="0.7" transform="rotate(337.5 100 100)"/>
  <!-- Very faint pupil (almost invisible) -->
  <circle cx="100" cy="100" r="22" fill="#d8d8e8" opacity="0.6"/>
  <circle cx="100" cy="100" r="10" fill="#c0c0d0" opacity="0.7"/>
  <!-- Limbal ring highlight -->
  <circle cx="100" cy="100" r="92" fill="none" stroke="#ffffff" stroke-width="2" opacity="0.8"/>
</svg>
